<svg xmlns="http://www.w3.org/2000/svg" height="502" width="960.0" font-size="16" font-family="sans-serif" stroke-width="2">
<g transform="translate(10.0 0)">
<text fill="hsl(0, 100%, 40%)" y="22">nondet.deep.(32,True).heftia.5+5 7.78 ms</text>
<g>
<title>7.78 ms ± 574 μs</title>
<rect y="28" rx="5" height="22" width="125.69821431286599" fill="hsl(0, 100%, 80%)" stroke="hsl(0, 100%, 55%)" />
<g stroke="hsl(0, 100%, 40%)"><line x1="116.42913040940886" x2="134.96729821632312" y1="39" y2="39" />
<line x1="116.42913040940886" x2="116.42913040940886" y1="33" y2="45" />
<line x1="134.96729821632312" x2="134.96729821632312" y1="33" y2="45" />
</g>
</g>
<text fill="hsl(40, 100%, 40%)" y="77">nondet.deep.(32,True).freer.5+5 6.20 ms</text>
<g>
<title>6.20 ms ± 452 μs</title>
<rect y="83" rx="5" height="22" width="100.11881155196578" fill="hsl(40, 100%, 80%)" stroke="hsl(40, 100%, 55%)" />
<g stroke="hsl(40, 100%, 40%)"><line x1="92.81567117301141" x2="107.42195193092014" y1="94" y2="94" />
<line x1="92.81567117301141" x2="92.81567117301141" y1="88" y2="100" />
<line x1="107.42195193092014" x2="107.42195193092014" y1="88" y2="100" />
</g>
</g>
<text fill="hsl(80, 100%, 40%)" y="132">nondet.deep.(32,True).fused.5+5 3.76 ms</text>
<g>
<title>3.76 ms ± 222 μs</title>
<rect y="138" rx="5" height="22" width="60.82125976065951" fill="hsl(80, 100%, 80%)" stroke="hsl(80, 100%, 55%)" />
<g stroke="hsl(80, 100%, 40%)"><line x1="57.23482965362961" x2="64.4076898676894" y1="149" y2="149" />
<line x1="57.23482965362961" x2="57.23482965362961" y1="143" y2="155" />
<line x1="64.4076898676894" x2="64.4076898676894" y1="143" y2="155" />
</g>
</g>
<text fill="hsl(120, 100%, 40%)" y="187">nondet.deep.(32,True).ev.5+5 1.88 ms</text>
<g>
<title>1.88 ms ± 105 μs</title>
<rect y="193" rx="5" height="22" width="30.396354424419307" fill="hsl(120, 100%, 80%)" stroke="hsl(120, 100%, 55%)" />
<g stroke="hsl(120, 100%, 40%)"><line x1="28.694132274463975" x2="32.09857657437464" y1="204" y2="204" />
<line x1="28.694132274463975" x2="28.694132274463975" y1="198" y2="210" />
<line x1="32.09857657437464" x2="32.09857657437464" y1="198" y2="210" />
</g>
</g>
<text fill="hsl(160, 100%, 40%)" y="242">nondet.deep.(32,True).mp.5+5 7.52 ms</text>
<g>
<title>7.52 ms ± 441 μs</title>
<rect y="248" rx="5" height="22" width="121.44884786862914" fill="hsl(160, 100%, 80%)" stroke="hsl(160, 100%, 55%)" />
<g stroke="hsl(160, 100%, 40%)"><line x1="114.3272417328195" x2="128.57045400443877" y1="259" y2="259" />
<line x1="114.3272417328195" x2="114.3272417328195" y1="253" y2="265" />
<line x1="128.57045400443877" x2="128.57045400443877" y1="253" y2="265" />
</g>
</g>
<g fill="hsl(200, 100%, 40%)">
<text y="297">nondet.deep.(32,True).eff.5+5</text>
<text y="297" x="868.0618656804706" text-anchor="end">53.7 ms</text>
</g>
<g>
<title>53.7 ms ± 4.5 ms</title>
<rect y="303" rx="5" height="22" width="868.0618656804706" fill="hsl(200, 100%, 80%)" stroke="hsl(200, 100%, 55%)" />
<g stroke="hsl(200, 100%, 40%)"><line x1="796.1237313609413" x2="940.0" y1="314" y2="314" />
<line x1="796.1237313609413" x2="796.1237313609413" y1="308" y2="320" />
<line x1="940.0" x2="940.0" y1="308" y2="320" />
</g>
</g>
<text fill="hsl(240, 100%, 40%)" y="352">nondet.deep.(32,True).mtl-logict.5+5 274  μs</text>
<g>
<title>274  μs ±  27 μs</title>
<rect y="358" rx="5" height="22" width="4.426067854237304" fill="hsl(240, 100%, 80%)" stroke="hsl(240, 100%, 55%)" />
<g stroke="hsl(240, 100%, 40%)"><line x1="3.9956155214655613" x2="4.856520187009046" y1="369" y2="369" />
<line x1="3.9956155214655613" x2="3.9956155214655613" y1="363" y2="375" />
<line x1="4.856520187009046" x2="4.856520187009046" y1="363" y2="375" />
</g>
</g>
<g fill="hsl(280, 100%, 40%)">
<text y="407">nondet.deep.(32,True).effective.5+5</text>
<text y="407" x="576.477152107377" text-anchor="end">35.7 ms</text>
</g>
<g>
<title>35.7 ms ± 3.4 ms</title>
<rect y="413" rx="5" height="22" width="576.477152107377" fill="hsl(280, 100%, 80%)" stroke="hsl(280, 100%, 55%)" />
<g stroke="hsl(280, 100%, 40%)"><line x1="521.1950097563532" x2="631.7592944584009" y1="424" y2="424" />
<line x1="521.1950097563532" x2="521.1950097563532" y1="418" y2="430" />
<line x1="631.7592944584009" x2="631.7592944584009" y1="418" y2="430" />
</g>
</g>
<text fill="hsl(320, 100%, 40%)" y="462">nondet.deep.(32,True).effective.staged.5+5 149  μs</text>
<g>
<title>149  μs ±  14 μs</title>
<rect y="468" rx="5" height="22" width="2.4131002022933354" fill="hsl(320, 100%, 80%)" stroke="hsl(320, 100%, 55%)" />
<g stroke="hsl(320, 100%, 40%)"><line x1="2.188920128148314" x2="2.6372802764383567" y1="479" y2="479" />
<line x1="2.188920128148314" x2="2.188920128148314" y1="473" y2="485" />
<line x1="2.6372802764383567" x2="2.6372802764383567" y1="473" y2="485" />
</g>
</g>
</g>
</svg>
