<svg xmlns="http://www.w3.org/2000/svg" height="557" width="960.0" font-size="16" font-family="sans-serif" stroke-width="2">
<g transform="translate(10.0 0)">
<text fill="hsl(0, 100%, 40%)" y="22">nondet.shallow.(32,True).heftia 5.03 ms</text>
<g>
<title>5.03 ms ± 427 μs</title>
<rect y="28" rx="5" height="22" width="153.14222267917933" fill="hsl(0, 100%, 80%)" stroke="hsl(0, 100%, 55%)" />
<g stroke="hsl(0, 100%, 40%)"><line x1="140.1516854745247" x2="166.13275988383396" y1="39" y2="39" />
<line x1="140.1516854745247" x2="140.1516854745247" y1="33" y2="45" />
<line x1="166.13275988383396" x2="166.13275988383396" y1="33" y2="45" />
</g>
</g>
<text fill="hsl(36, 100%, 40%)" y="77">nondet.shallow.(32,True).freer 3.88 ms</text>
<g>
<title>3.88 ms ± 219 μs</title>
<rect y="83" rx="5" height="22" width="118.06913025145673" fill="hsl(36, 100%, 80%)" stroke="hsl(36, 100%, 55%)" />
<g stroke="hsl(36, 100%, 40%)"><line x1="111.3988942221987" x2="124.73936628071475" y1="94" y2="94" />
<line x1="111.3988942221987" x2="111.3988942221987" y1="88" y2="100" />
<line x1="124.73936628071475" x2="124.73936628071475" y1="88" y2="100" />
</g>
</g>
<text fill="hsl(72, 100%, 40%)" y="132">nondet.shallow.(32,True).fused 302  μs</text>
<g>
<title>302  μs ± 9.3 μs</title>
<rect y="138" rx="5" height="22" width="9.202257227720755" fill="hsl(72, 100%, 80%)" stroke="hsl(72, 100%, 55%)" />
<g stroke="hsl(72, 100%, 40%)"><line x1="8.920051109590373" x2="9.484463345851138" y1="149" y2="149" />
<line x1="8.920051109590373" x2="8.920051109590373" y1="143" y2="155" />
<line x1="9.484463345851138" x2="9.484463345851138" y1="143" y2="155" />
</g>
</g>
<text fill="hsl(108, 100%, 40%)" y="187">nondet.shallow.(32,True).ev 973  μs</text>
<g>
<title>973  μs ±  53 μs</title>
<rect y="193" rx="5" height="22" width="29.589445484286323" fill="hsl(108, 100%, 80%)" stroke="hsl(108, 100%, 55%)" />
<g stroke="hsl(108, 100%, 40%)"><line x1="27.97216573740378" x2="31.206725231168864" y1="204" y2="204" />
<line x1="27.97216573740378" x2="27.97216573740378" y1="198" y2="210" />
<line x1="31.206725231168864" x2="31.206725231168864" y1="198" y2="210" />
</g>
</g>
<text fill="hsl(144, 100%, 40%)" y="242">nondet.shallow.(32,True).mp 2.57 ms</text>
<g>
<title>2.57 ms ± 220 μs</title>
<rect y="248" rx="5" height="22" width="78.08391856921038" fill="hsl(144, 100%, 80%)" stroke="hsl(144, 100%, 55%)" />
<g stroke="hsl(144, 100%, 40%)"><line x1="71.39050940796349" x2="84.77732773045727" y1="259" y2="259" />
<line x1="71.39050940796349" x2="71.39050940796349" y1="253" y2="265" />
<line x1="84.77732773045727" x2="84.77732773045727" y1="253" y2="265" />
</g>
</g>
<g fill="hsl(180, 100%, 40%)">
<text y="297">nondet.shallow.(32,True).eff</text>
<text y="297" x="868.0009934788102" text-anchor="end">28.5 ms</text>
</g>
<g>
<title>28.5 ms ± 2.4 ms</title>
<rect y="303" rx="5" height="22" width="868.0009934788102" fill="hsl(180, 100%, 80%)" stroke="hsl(180, 100%, 55%)" />
<g stroke="hsl(180, 100%, 40%)"><line x1="796.0019869576204" x2="940.0" y1="314" y2="314" />
<line x1="796.0019869576204" x2="796.0019869576204" y1="308" y2="320" />
<line x1="940.0" x2="940.0" y1="308" y2="320" />
</g>
</g>
<text fill="hsl(216, 100%, 40%)" y="352">nondet.shallow.(32,True).mtl-logict 274  μs</text>
<g>
<title>274  μs ±  26 μs</title>
<rect y="358" rx="5" height="22" width="8.334784387129657" fill="hsl(216, 100%, 80%)" stroke="hsl(216, 100%, 55%)" />
<g stroke="hsl(216, 100%, 40%)"><line x1="7.531645463552644" x2="9.13792331070667" y1="369" y2="369" />
<line x1="7.531645463552644" x2="7.531645463552644" y1="363" y2="375" />
<line x1="9.13792331070667" x2="9.13792331070667" y1="363" y2="375" />
</g>
</g>
<text fill="hsl(252, 100%, 40%)" y="407">nondet.shallow.(32,True).effective 768  μs</text>
<g>
<title>768  μs ±  56 μs</title>
<rect y="413" rx="5" height="22" width="23.35407748156283" fill="hsl(252, 100%, 80%)" stroke="hsl(252, 100%, 55%)" />
<g stroke="hsl(252, 100%, 40%)"><line x1="21.662601312830677" x2="25.04555365029498" y1="424" y2="424" />
<line x1="21.662601312830677" x2="21.662601312830677" y1="418" y2="430" />
<line x1="25.04555365029498" x2="25.04555365029498" y1="418" y2="430" />
</g>
</g>
<text fill="hsl(288, 100%, 40%)" y="462">nondet.shallow.(32,True).effective.staged 95.6 μs</text>
<g>
<title>95.6 μs ± 7.4 μs</title>
<rect y="468" rx="5" height="22" width="2.909054574659811" fill="hsl(288, 100%, 80%)" stroke="hsl(288, 100%, 55%)" />
<g stroke="hsl(288, 100%, 40%)"><line x1="2.6827980700503296" x2="3.1353110792692926" y1="479" y2="479" />
<line x1="2.6827980700503296" x2="2.6827980700503296" y1="473" y2="485" />
<line x1="3.1353110792692926" x2="3.1353110792692926" y1="473" y2="485" />
</g>
</g>
<text fill="hsl(324, 100%, 40%)" y="517">nondet.shallow.(32,True).native 94.2 μs</text>
<g>
<title>94.2 μs ± 7.2 μs</title>
<rect y="523" rx="5" height="22" width="2.8674846723281515" fill="hsl(324, 100%, 80%)" stroke="hsl(324, 100%, 55%)" />
<g stroke="hsl(324, 100%, 40%)"><line x1="2.6482372261396834" x2="3.0867321185166197" y1="534" y2="534" />
<line x1="2.6482372261396834" x2="2.6482372261396834" y1="528" y2="540" />
<line x1="3.0867321185166197" x2="3.0867321185166197" y1="528" y2="540" />
</g>
</g>
</g>
</svg>
